<svg xmlns="http://www.w3.org/2000/svg" viewBox="0 0 80 80">
  <path d="M21.65 45.9H8.95v3.9h13.9c.4 1.3 1.1 2.7 1.8 3.9h-11.9v3.9h14.5c1.2 1.5 2.4 2.7 3.9 3.9h-14.5v3.9h21.1c3.2 1.3 6.6 2 10.2 2 14.8 0 26.9-12.2 26.9-27.4s-12.1-27.4-26.9-27.4c-3.6 0-7 .7-10.2 2.1h-21.1v3.9h14.6c-1.5 1.1-2.7 2.4-3.9 3.9h-14.6v3.9h11.9c-.7 1.3-1.3 2.5-1.8 3.9H8.95v3.9h12.7c-.2 1.3-.4 2.6-.5 3.9h-16V42h16c.1 1.3.3 2.6.5 3.9Zm45.3-15.7v3.9h-45.3c.3-1.3.7-2.7 1.2-3.9h44.1ZM21.15 42c-.1-.7-.1-1.3-.1-1.9 0-.7 0-1.3.1-2h42V42h-42Zm38.6 11.7v3.9h-32.4a27 27 0 0 1-2.7-3.9h35.1Zm-11-7.8v3.9h-25.9c-.5-1.3-.9-2.5-1.2-3.9h27.1Zm-24.1-19.5a27 27 0 0 1 2.7-3.9h22.8v3.9h-25.5Zm29.7 35.1v3.9h-16.7c-2.3-1-4.5-2.4-6.5-3.9h23.2Zm-23.1-42.9c1.9-1.6 4.2-3 6.5-3.9h16.6v3.9h-23.1Z"/>
</svg>
