<svg xmlns="http://www.w3.org/2000/svg" viewBox="0 0 100 100">
  <path d="M28.26 16.66a2.1 2.1 0 0 0-1.47.6l-9.5 9.51a2.1 2.1 0 1 0 2.94 2.96l9.5-9.5a2.07 2.07 0 0 0 0-2.96 2.1 2.1 0 0 0-1.47-.61zm17.56.09c-.55 0-1.08.22-1.47.61l-26.98 27a2.07 2.07 0 0 0 0 2.96 2.07 2.07 0 0 0 2.96 0l26.97-27a2.07 2.07 0 0 0 0-2.96c-.39-.4-.92-.61-1.48-.61zm17.75-.09c-.54 0-1.06.22-1.44.6L17.28 62.12a2.1 2.1 0 0 0 2.95 2.95l44.82-44.84a2.1 2.1 0 0 0-1.48-3.56zm17.69 0a2.1 2.1 0 0 0-1.48.6l-62.5 62.5a2.1 2.1 0 1 0 2.95 2.96l62.5-62.5a2.07 2.07 0 0 0 0-2.95 2.1 2.1 0 0 0-1.47-.61zm-1.48 53.61-9.53 9.5a2.1 2.1 0 1 0 2.95 2.95l9.53-9.5a2.07 2.07 0 0 0 0-2.95 2.1 2.1 0 0 0-2.95 0zM81.26 52a2.1 2.1 0 0 0-1.48.6L52.6 79.78a2.07 2.07 0 0 0 0 2.95 2.07 2.07 0 0 0 2.96 0l27.19-27.19a2.08 2.08 0 0 0-1.5-3.54zm-1.48-17.07L34.94 79.77a2.1 2.1 0 1 0 2.95 2.95l44.84-44.84a2.07 2.07 0 0 0 0-2.95 2.07 2.07 0 0 0-2.95 0z"/>
</svg>
